# xmcd
#
# Track frame offsets:
#	150
#	26258
#	44289
#	73694
#	94141
#	115965
#	140151
#	157041
#	179476
#	210385
#	234940
#	265116
#	286550
#	304100
#	322249
#	330470
#
# Disc length: 4703 seconds
#
# Revision: 0
# Processed by: cddbd v1.5.2PL0 Copyright (c) Steve Scherf et al.
# Submitted via: EZCDAudioConverter 1.3.4.1
#
DISCID=e2125d10
DTITLE=Robert Plant - Fate Of Nations
DYEAR=1993
DGENRE=
TTITLE0=Calling To You
TTITLE1=Down To The Sea
TTITLE2=Come Into My Life
TTITLE3=I Believe
TTITLE4=29 Palms
TTITLE5=Memory Song (Hello Hello)
TTITLE6=If I Were A Carpenter
TTITLE7=Promised Land
TTITLE8=The Greatest Gift
TTITLE9=Great Spirit
TTITLE10=Network News
TTITLE11=Colours Of A Shade
TTITLE12=Great Spirit [Acoustic Mix]
TTITLE13=Rollercoaster [Demo]
TTITLE14=8:05
TTITLE15=Dark Moon [Acoustic]
EXTD=
EXTT0=
EXTT1=
EXTT2=
EXTT3=
EXTT4=
EXTT5=
EXTT6=
EXTT7=
EXTT8=
EXTT9=
EXTT10=
EXTT11=
EXTT12=
EXTT13=
EXTT14=
EXTT15=
PLAYORDER=
